<svg xmlns="http://www.w3.org/2000/svg" width="140" height="141" viewBox="0 0 140 141" fill="none">
<circle cx="70" cy="70.2734" r="69.6799" stroke="#046a38" stroke-width="1.640244"/>
<path d="M88.0531 25.3223H49.5773C46.9188 25.3223 44.7637 27.4774 44.7637 30.1359V106.324C44.7637 108.983 46.9188 111.138 49.5773 111.138H88.0531C90.7116 111.138 92.8668 108.983 92.8668 106.324V30.1359C92.8668 27.4774 90.7116 25.3223 88.0531 25.3223Z" fill="#FF671F"/>
<path d="M88.0531 29.4082H49.5773C46.9188 29.4082 44.7637 31.5634 44.7637 34.2219V110.41C44.7637 113.069 46.9188 115.224 49.5773 115.224H88.0531C90.7116 115.224 92.8668 113.069 92.8668 110.41V34.2219C92.8668 31.5634 90.7116 29.4082 88.0531 29.4082Z" fill="#F1F1F1"/>
<rect x="47.1582" y="58.2891" width="43.3135" height="11.0273" rx="2" fill="#D9D9D9"/>
<rect x="47.1582" y="75.3164" width="43.3135" height="11.0273" rx="2" fill="#E06506"/>
<path d="M59.8857 81.1708H76.3021L73.9319 83.3189L74.4644 83.8016L77.7438 80.8295L74.4644 77.8574L73.9319 78.3401L76.3021 80.4882H59.8857V81.1708Z" fill="white"/>
<g filter="url(#filter0_d_1192_9087)">
<rect x="55.1202" y="37.9503" width="55.2498" height="17.0994" rx="8.54972" fill="white"/>
<rect x="55.1202" y="37.9503" width="55.2498" height="17.0994" rx="8.54972" stroke="#046a38" stroke-width="0.853659"/>
<path d="M64.8807 46.9424L63.3407 44.5249H64.4949C64.57 44.5249 64.6246 44.5351 64.6588 44.5556C64.6952 44.5738 64.7271 44.6057 64.7544 44.6512L65.7446 46.3278C65.756 46.2982 65.7685 46.2698 65.7822 46.2424C65.7981 46.2151 65.8152 46.1867 65.8334 46.1571L66.7007 44.6683C66.7576 44.5727 66.835 44.5249 66.9329 44.5249H68.0393L66.4788 46.8912L68.0734 49.5H66.9193C66.8441 49.5 66.7827 49.4818 66.7349 49.4454C66.6893 49.4089 66.6529 49.3657 66.6256 49.3156L65.6285 47.5741C65.6103 47.6242 65.5898 47.6675 65.5671 47.7039L64.6383 49.3156C64.611 49.3634 64.5745 49.4067 64.529 49.4454C64.4835 49.4818 64.4266 49.5 64.3583 49.5H63.2793L64.8807 46.9424ZM69.7426 46.9424L68.2026 44.5249H69.3567C69.4318 44.5249 69.4865 44.5351 69.5206 44.5556C69.5571 44.5738 69.5889 44.6057 69.6162 44.6512L70.6065 46.3278C70.6179 46.2982 70.6304 46.2698 70.644 46.2424C70.66 46.2151 70.6771 46.1867 70.6953 46.1571L71.5626 44.6683C71.6195 44.5727 71.6969 44.5249 71.7948 44.5249H72.9011L71.3406 46.8912L72.9353 49.5H71.7811C71.706 49.5 71.6445 49.4818 71.5967 49.4454C71.5512 49.4089 71.5148 49.3657 71.4875 49.3156L70.4904 47.5741C70.4722 47.6242 70.4517 47.6675 70.4289 47.7039L69.5001 49.3156C69.4728 49.3634 69.4364 49.4067 69.3909 49.4454C69.3453 49.4818 69.2884 49.5 69.2201 49.5H68.1411L69.7426 46.9424ZM74.6044 46.9424L73.0644 44.5249H74.2186C74.2937 44.5249 74.3483 44.5351 74.3825 44.5556C74.4189 44.5738 74.4508 44.6057 74.4781 44.6512L75.4683 46.3278C75.4797 46.2982 75.4922 46.2698 75.5059 46.2424C75.5218 46.2151 75.5389 46.1867 75.5571 46.1571L76.4244 44.6683C76.4813 44.5727 76.5587 44.5249 76.6566 44.5249H77.763L76.2025 46.8912L77.7971 49.5H76.643C76.5678 49.5 76.5064 49.4818 76.4586 49.4454C76.413 49.4089 76.3766 49.3657 76.3493 49.3156L75.3522 47.5741C75.334 47.6242 75.3135 47.6675 75.2908 47.7039L74.362 49.3156C74.3347 49.3634 74.2983 49.4067 74.2527 49.4454C74.2072 49.4818 74.1503 49.5 74.082 49.5H73.003L74.6044 46.9424ZM79.4663 46.9424L77.9263 44.5249H79.0804C79.1556 44.5249 79.2102 44.5351 79.2443 44.5556C79.2808 44.5738 79.3126 44.6057 79.3399 44.6512L80.3302 46.3278C80.3416 46.2982 80.3541 46.2698 80.3677 46.2424C80.3837 46.2151 80.4008 46.1867 80.419 46.1571L81.2863 44.6683C81.3432 44.5727 81.4206 44.5249 81.5185 44.5249H82.6248L81.0643 46.8912L82.659 49.5H81.5048C81.4297 49.5 81.3682 49.4818 81.3204 49.4454C81.2749 49.4089 81.2385 49.3657 81.2112 49.3156L80.2141 47.5741C80.1959 47.6242 80.1754 47.6675 80.1526 47.7039L79.2238 49.3156C79.1965 49.3634 79.1601 49.4067 79.1146 49.4454C79.069 49.4818 79.0121 49.5 78.9438 49.5H77.8648L79.4663 46.9424ZM84.3281 46.9424L82.7881 44.5249H83.9423C84.0174 44.5249 84.072 44.5351 84.1062 44.5556C84.1426 44.5738 84.1745 44.6057 84.2018 44.6512L85.192 46.3278C85.2034 46.2982 85.2159 46.2698 85.2296 46.2424C85.2455 46.2151 85.2626 46.1867 85.2808 46.1571L86.1481 44.6683C86.205 44.5727 86.2824 44.5249 86.3803 44.5249H87.4867L85.9262 46.8912L87.5208 49.5H86.3667C86.2916 49.5 86.2301 49.4818 86.1823 49.4454C86.1368 49.4089 86.1003 49.3657 86.073 49.3156L85.0759 47.5741C85.0577 47.6242 85.0372 47.6675 85.0145 47.7039L84.0857 49.3156C84.0584 49.3634 84.022 49.4067 83.9764 49.4454C83.9309 49.4818 83.874 49.5 83.8057 49.5H82.7267L84.3281 46.9424ZM89.19 46.9424L87.65 44.5249H88.8041C88.8793 44.5249 88.9339 44.5351 88.968 44.5556C89.0045 44.5738 89.0363 44.6057 89.0636 44.6512L90.0539 46.3278C90.0653 46.2982 90.0778 46.2698 90.0915 46.2424C90.1074 46.2151 90.1245 46.1867 90.1427 46.1571L91.01 44.6683C91.0669 44.5727 91.1443 44.5249 91.2422 44.5249H92.3485L90.788 46.8912L92.3827 49.5H91.2285C91.1534 49.5 91.0919 49.4818 91.0441 49.4454C90.9986 49.4089 90.9622 49.3657 90.9349 49.3156L89.9378 47.5741C89.9196 47.6242 89.8991 47.6675 89.8763 47.7039L88.9475 49.3156C88.9202 49.3634 88.8838 49.4067 88.8383 49.4454C88.7928 49.4818 88.7358 49.5 88.6675 49.5H87.5885L89.19 46.9424ZM94.0518 46.9424L92.5118 44.5249H93.666C93.7411 44.5249 93.7957 44.5351 93.8299 44.5556C93.8663 44.5738 93.8982 44.6057 93.9255 44.6512L94.9157 46.3278C94.9271 46.2982 94.9396 46.2698 94.9533 46.2424C94.9692 46.2151 94.9863 46.1867 95.0045 46.1571L95.8718 44.6683C95.9287 44.5727 96.0061 44.5249 96.104 44.5249H97.2104L95.6499 46.8912L97.2445 49.5H96.0904C96.0153 49.5 95.9538 49.4818 95.906 49.4454C95.8605 49.4089 95.824 49.3657 95.7967 49.3156L94.7996 47.5741C94.7814 47.6242 94.7609 47.6675 94.7382 47.7039L93.8094 49.3156C93.7821 49.3634 93.7457 49.4067 93.7001 49.4454C93.6546 49.4818 93.5977 49.5 93.5294 49.5H92.4504L94.0518 46.9424ZM98.9137 46.9424L97.3737 44.5249H98.5278C98.603 44.5249 98.6576 44.5351 98.6917 44.5556C98.7282 44.5738 98.76 44.6057 98.7874 44.6512L99.7776 46.3278C99.789 46.2982 99.8015 46.2698 99.8152 46.2424C99.8311 46.2151 99.8482 46.1867 99.8664 46.1571L100.734 44.6683C100.791 44.5727 100.868 44.5249 100.966 44.5249H102.072L100.512 46.8912L102.106 49.5H100.952C100.877 49.5 100.816 49.4818 100.768 49.4454C100.722 49.4089 100.686 49.3657 100.659 49.3156L99.6615 47.5741C99.6433 47.6242 99.6228 47.6675 99.6 47.7039L98.6713 49.3156C98.6439 49.3634 98.6075 49.4067 98.562 49.4454C98.5165 49.4818 98.4595 49.5 98.3913 49.5H97.3122L98.9137 46.9424Z" fill="#777777"/>
</g>
<path d="M67.5898 61.0527L64.1257 55.0527L71.0539 55.0527L67.5898 61.0527Z" fill="#046a38"/>
<defs>
<filter id="filter0_d_1192_9087" x="51.2787" y="37.5234" width="62.9328" height="24.7824" filterUnits="userSpaceOnUse" color-interpolation-filters="sRGB">
<feFlood flood-opacity="0" result="BackgroundImageFix"/>
<feColorMatrix in="SourceAlpha" type="matrix" values="0 0 0 0 0 0 0 0 0 0 0 0 0 0 0 0 0 0 127 0" result="hardAlpha"/>
<feOffset dy="3.41463"/>
<feGaussianBlur stdDeviation="1.70732"/>
<feComposite in2="hardAlpha" operator="out"/>
<feColorMatrix type="matrix" values="0 0 0 0 0 0 0 0 0 0 0 0 0 0 0 0 0 0 0.25 0"/>
<feBlend mode="normal" in2="BackgroundImageFix" result="effect1_dropShadow_1192_9087"/>
<feBlend mode="normal" in="SourceGraphic" in2="effect1_dropShadow_1192_9087" result="shape"/>
</filter>
<linearGradient id="paint0_linear_1192_9087" x1="70" y1="0.273437" x2="70" y2="140.273" gradientUnits="userSpaceOnUse">
<stop stop-color="#34B7A9"/>
<stop offset="1" stop-color="#108F82"/>
</linearGradient>
<linearGradient id="paint1_linear_1192_9087" x1="82.7451" y1="37.5234" x2="82.7451" y2="55.4765" gradientUnits="userSpaceOnUse">
<stop stop-color="#34B7A9"/>
<stop offset="1" stop-color="#108F82"/>
</linearGradient>
</defs>
</svg>